<?xml version="1.0" encoding="UTF-8" standalone="no"?>
<svg
   xmlns:dc="http://purl.org/dc/elements/1.1/"
   xmlns:cc="http://creativecommons.org/ns#"
   xmlns:rdf="http://www.w3.org/1999/02/22-rdf-syntax-ns#"
   xmlns:svg="http://www.w3.org/2000/svg"
   xmlns="http://www.w3.org/2000/svg"
   xmlns:sodipodi="http://sodipodi.sourceforge.net/DTD/sodipodi-0.dtd"
   xmlns:inkscape="http://www.inkscape.org/namespaces/inkscape"
   xml:space="preserve"
   viewBox="0 0 100 100"
   y="0"
   x="0"
   id="圖層_1"
   version="1.1"
   width="200px"
   height="200px"
   style="width:100%;height:100%;background-size:initial;background-repeat-y:initial;background-repeat-x:initial;background-position-y:initial;background-position-x:initial;background-origin:initial;background-image:initial;background-color:rgb(255, 255, 255);background-clip:initial;background-attachment:initial;animation-play-state:paused"
   sodipodi:docname="girl_user.svg"
   inkscape:version="0.92.4 (5da689c313, 2019-01-14)"
   inkscape:export-filename="C:\Projects\led_console\infra\imgs\girl_user.png"
   inkscape:export-xdpi="16.799999"
   inkscape:export-ydpi="16.799999"><metadata
     id="metadata4621"><rdf:RDF><cc:Work
         rdf:about=""><dc:format>image/svg+xml</dc:format><dc:type
           rdf:resource="http://purl.org/dc/dcmitype/StillImage" /><dc:title></dc:title></cc:Work></rdf:RDF></metadata><defs
     id="defs4619">

</defs><sodipodi:namedview
     pagecolor="#ffffff"
     bordercolor="#666666"
     borderopacity="1"
     objecttolerance="10"
     gridtolerance="10"
     guidetolerance="10"
     inkscape:pageopacity="0"
     inkscape:pageshadow="2"
     inkscape:window-width="2046"
     inkscape:window-height="1282"
     id="namedview4617"
     showgrid="false"
     inkscape:zoom="3.337544"
     inkscape:cx="227.24359"
     inkscape:cy="48.342505"
     inkscape:window-x="1093"
     inkscape:window-y="64"
     inkscape:window-maximized="0"
     inkscape:current-layer="g4604" /><g
     id="g4604"><path
   inkscape:connector-curvature="0"
   id="path4592"
   style="fill:#4a3827"
   d="M 69.843,66.938 H 30.157 L 24.882,33.431 C 24.882,19.558 36.128,8.313 50,8.313 c 13.872,0 25.118,11.246 25.118,25.118 z" />
<path
   inkscape:connector-curvature="0"
   id="path4594"
   style="fill:#5db5e4;fill-opacity:1"
   d="M 60.688,89.375 H 39.313 C 30.718,89.375 23.75,82.407 23.75,73.812 V 70 c 0,-13.876 11.249,-25.125 25.125,-25.125 h 2.25 C 65.001,44.875 76.25,56.124 76.25,70 v 3.813 c 0,8.594 -6.968,15.562 -15.562,15.562 z" />
<circle
   id="circle4596"
   style="fill:#f5e6c8"
   cx="50"
   cy="34.188"
   r="21.25" />
<path
   inkscape:connector-curvature="0"
   id="path4598"
   style="fill:#ffe7b7;fill-opacity:1"
   d="M 53.71,24.192 C 48.432,30.933 40.225,35.271 31,35.271 a 29.11,29.11 0 0 1 -2.2,-0.092 c 0.521,11.272 9.799,20.259 21.2,20.259 11.736,0 21.25,-9.514 21.25,-21.25 0,-1.473 -0.151,-2.911 -0.436,-4.3 A 22.578,22.578 0 0 1 53.71,24.192 Z" />
<path
   inkscape:connector-curvature="0"
   id="path4600"
   style="fill:#4a3827"
   d="M 58.919,14.042 A 29.764,29.764 0 0 1 53.849,23.8 23.381,23.381 0 0 0 71.56,29.697 C 70.116,22.672 65.317,16.882 58.919,14.042 Z" />
<path
   inkscape:connector-curvature="0"
   id="path4602"
   style="fill:#4a3827"
   d="m 50.008,12.146 a 22.09,22.09 0 0 0 -3.17,0.254 c -10.646,1.54 -18.833,10.676 -18.833,21.749 0,0.347 0.036,0.684 0.052,1.026 0.753,0.057 1.511,0.095 2.278,0.095 9.552,0 18.05,-4.491 23.515,-11.471 a 29.744,29.744 0 0 0 5.07,-9.758 21.925,21.925 0 0 0 -8.912,-1.895 z" /></g><!-- generated by https://loading.io/ --></svg>